solid OpenSCAD_Model
  facet normal 0 1 -0
    outer loop
      vertex -52 15 -5.25
      vertex -85 15 5.25
      vertex -52 15 5.25
    endloop
  endfacet
  facet normal 0 1 0
    outer loop
      vertex -85 15 5.25
      vertex -52 15 -5.25
      vertex -85 15 -5.25
    endloop
  endfacet
  facet normal 0 1 -0
    outer loop
      vertex 85 15 -5.25
      vertex 52 15 5.25
      vertex 85 15 5.25
    endloop
  endfacet
  facet normal 0 1 0
    outer loop
      vertex 52 15 5.25
      vertex 85 15 -5.25
      vertex 52 15 -5.25
    endloop
  endfacet
  facet normal -1 0 0
    outer loop
      vertex -52 15 -5.25
      vertex -52 20 5.25
      vertex -52 20 -5.25
    endloop
  endfacet
  facet normal -1 -0 0
    outer loop
      vertex -52 20 5.25
      vertex -52 15 -5.25
      vertex -52 15 5.25
    endloop
  endfacet
  facet normal 1 -0 0
    outer loop
      vertex 52 15 5.25
      vertex 52 20 -5.25
      vertex 52 20 5.25
    endloop
  endfacet
  facet normal 1 0 0
    outer loop
      vertex 52 20 -5.25
      vertex 52 15 5.25
      vertex 52 15 -5.25
    endloop
  endfacet
  facet normal -1 0 0
    outer loop
      vertex -85 -20 -5.25
      vertex -85 15 5.25
      vertex -85 15 -5.25
    endloop
  endfacet
  facet normal -1 -0 0
    outer loop
      vertex -85 15 5.25
      vertex -85 -20 -5.25
      vertex -85 -20 5.25
    endloop
  endfacet
  facet normal 0 0 1
    outer loop
      vertex 52 20 5.25
      vertex -52 20 5.25
      vertex 52 15 5.25
    endloop
  endfacet
  facet normal 0 0 1
    outer loop
      vertex 85 15 5.25
      vertex 80 9.5 5.25
      vertex 85 -20 5.25
    endloop
  endfacet
  facet normal -0 0 1
    outer loop
      vertex 52 15 5.25
      vertex 80 9.5 5.25
      vertex 85 15 5.25
    endloop
  endfacet
  facet normal 0 0 1
    outer loop
      vertex -52 15 5.25
      vertex 52 15 5.25
      vertex -52 20 5.25
    endloop
  endfacet
  facet normal 0 0 1
    outer loop
      vertex 52 15 5.25
      vertex -52 15 5.25
      vertex 80 9.5 5.25
    endloop
  endfacet
  facet normal 0 0 1
    outer loop
      vertex -52 15 5.25
      vertex -80 9.5 5.25
      vertex 80 9.5 5.25
    endloop
  endfacet
  facet normal 0 0 1
    outer loop
      vertex -85 -20 5.25
      vertex -80 9.5 5.25
      vertex -85 15 5.25
    endloop
  endfacet
  facet normal -0 0 1
    outer loop
      vertex -85 15 5.25
      vertex -80 9.5 5.25
      vertex -52 15 5.25
    endloop
  endfacet
  facet normal -0 0 1
    outer loop
      vertex 80 -15.5 5.25
      vertex 85 -20 5.25
      vertex 80 9.5 5.25
    endloop
  endfacet
  facet normal -0 0 1
    outer loop
      vertex -80 -15.5 5.25
      vertex 85 -20 5.25
      vertex 80 -15.5 5.25
    endloop
  endfacet
  facet normal 0 0 1
    outer loop
      vertex -80 -15.5 5.25
      vertex -85 -20 5.25
      vertex 85 -20 5.25
    endloop
  endfacet
  facet normal 0 0 1
    outer loop
      vertex -80 9.5 5.25
      vertex -85 -20 5.25
      vertex -80 -15.5 5.25
    endloop
  endfacet
  facet normal 1 -0 0
    outer loop
      vertex 85 -20 5.25
      vertex 85 15 -5.25
      vertex 85 15 5.25
    endloop
  endfacet
  facet normal 1 0 0
    outer loop
      vertex 85 15 -5.25
      vertex 85 -20 5.25
      vertex 85 -20 -5.25
    endloop
  endfacet
  facet normal 0 0 -1
    outer loop
      vertex 80 9.5 -5.25
      vertex 85 -20 -5.25
      vertex 80 -15.5 -5.25
    endloop
  endfacet
  facet normal 0 0 -1
    outer loop
      vertex 85 -20 -5.25
      vertex -80 -15.5 -5.25
      vertex 80 -15.5 -5.25
    endloop
  endfacet
  facet normal -0 0 -1
    outer loop
      vertex -80 -15.5 -5.25
      vertex -85 -20 -5.25
      vertex -80 9.5 -5.25
    endloop
  endfacet
  facet normal 0 0 -1
    outer loop
      vertex -85 -20 -5.25
      vertex -80 -15.5 -5.25
      vertex 85 -20 -5.25
    endloop
  endfacet
  facet normal 0 0 -1
    outer loop
      vertex 85 -20 -5.25
      vertex 80 9.5 -5.25
      vertex 85 15 -5.25
    endloop
  endfacet
  facet normal 0 0 -1
    outer loop
      vertex 80 9.5 -5.25
      vertex 52 15 -5.25
      vertex 85 15 -5.25
    endloop
  endfacet
  facet normal 0 0 -1
    outer loop
      vertex 52 15 -5.25
      vertex -52 15 -5.25
      vertex 52 20 -5.25
    endloop
  endfacet
  facet normal 0 0 -1
    outer loop
      vertex 80 9.5 -5.25
      vertex -52 15 -5.25
      vertex 52 15 -5.25
    endloop
  endfacet
  facet normal 0 0 -1
    outer loop
      vertex -80 9.5 -5.25
      vertex -52 15 -5.25
      vertex 80 9.5 -5.25
    endloop
  endfacet
  facet normal 0 0 -1
    outer loop
      vertex -80 9.5 -5.25
      vertex -85 15 -5.25
      vertex -52 15 -5.25
    endloop
  endfacet
  facet normal 0 0 -1
    outer loop
      vertex -85 15 -5.25
      vertex -80 9.5 -5.25
      vertex -85 -20 -5.25
    endloop
  endfacet
  facet normal -0 0 -1
    outer loop
      vertex 52 20 -5.25
      vertex -52 15 -5.25
      vertex -52 20 -5.25
    endloop
  endfacet
  facet normal 0 -1 0
    outer loop
      vertex -85 -20 -5.25
      vertex 85 -20 5.25
      vertex -85 -20 5.25
    endloop
  endfacet
  facet normal 0 -1 -0
    outer loop
      vertex 85 -20 5.25
      vertex -85 -20 -5.25
      vertex 85 -20 -5.25
    endloop
  endfacet
  facet normal 0 1 -0
    outer loop
      vertex 52 20 -5.25
      vertex -52 20 5.25
      vertex 52 20 5.25
    endloop
  endfacet
  facet normal 0 1 0
    outer loop
      vertex -52 20 5.25
      vertex 52 20 -5.25
      vertex -52 20 -5.25
    endloop
  endfacet
  facet normal 1 -0 0
    outer loop
      vertex -80 -15.5 5.25
      vertex -80 9.5 -5.25
      vertex -80 9.5 5.25
    endloop
  endfacet
  facet normal 1 0 0
    outer loop
      vertex -80 9.5 -5.25
      vertex -80 -15.5 5.25
      vertex -80 -15.5 -5.25
    endloop
  endfacet
  facet normal -1 0 0
    outer loop
      vertex 80 -15.5 -5.25
      vertex 80 9.5 5.25
      vertex 80 9.5 -5.25
    endloop
  endfacet
  facet normal -1 -0 0
    outer loop
      vertex 80 9.5 5.25
      vertex 80 -15.5 -5.25
      vertex 80 -15.5 5.25
    endloop
  endfacet
  facet normal 0 -1 0
    outer loop
      vertex -80 9.5 -5.25
      vertex 80 9.5 5.25
      vertex -80 9.5 5.25
    endloop
  endfacet
  facet normal 0 -1 -0
    outer loop
      vertex 80 9.5 5.25
      vertex -80 9.5 -5.25
      vertex 80 9.5 -5.25
    endloop
  endfacet
  facet normal 0 1 -0
    outer loop
      vertex 80 -15.5 -5.25
      vertex -80 -15.5 5.25
      vertex 80 -15.5 5.25
    endloop
  endfacet
  facet normal 0 1 0
    outer loop
      vertex -80 -15.5 5.25
      vertex 80 -15.5 -5.25
      vertex -80 -15.5 -5.25
    endloop
  endfacet
endsolid OpenSCAD_Model
